{
  "accessors": [
    {
      "bufferView": 2,
      "componentType": 5126,
      "count": 1494,
      "max": [
        0.51249599456787109,
        0.38169598579406738,
        1.013285756111145
      ],
      "min": [
        -0.4636884331703186,
        -0.23682518303394318,
        0.41147521138191223
      ],
      "type": "VEC3"
    },
    {
      "bufferView": 2,
      "byteOffset": 17928,
      "componentType": 5126,
      "count": 1494,
      "max": [
        0.99594771862030029,
        0.99188840389251709,
        0.9987490177154541
      ],
      "min": [
        -0.98705530166625977,
        -0.99657267332077026,
        -0.99887204170227051
      ],
      "type": "VEC3"
    },
    {
      "bufferView": 3,
      "componentType": 5126,
      "count": 1494,
      "max": [
        0.99945306777954102,
        0.97675460577011108,
        0.99995499849319458,
        1
      ],
      "min": [
        -0.99827808141708374,
        -0.99961239099502563,
        -0.97523528337478638,
        -1
      ],
      "type": "VEC4"
    },
    {
      "bufferView": 1,
      "componentType": 5126,
      "count": 1494,
      "max": [
        0.99660861492156982,
        0.95971810817718506
      ],
      "min": [
        0.0055077075958251953,
        0.033465355634689331
      ],
      "type": "VEC2"
    },
    {
      "bufferView": 0,
      "componentType": 5125,
      "count": 1494,
      "max": [
        1493
      ],
      "min": [
        0
      ],
      "type": "SCALAR"
    },
    {
      "bufferView": 2,
      "byteOffset": 35856,
      "componentType": 5126,
      "count": 3620,
      "max": [
        0.37268912792205811,
        0.28066149353981018,
        0.86980581283569336
      ],
      "min": [
        -0.31966137886047363,
        -0.17372830212116241,
        -0.014333239756524563
      ],
      "type": "VEC3"
    },
    {
      "bufferView": 2,
      "byteOffset": 79296,
      "componentType": 5126,
      "count": 3620,
      "max": [
        0.99916172027587891,
        0.98923170566558838,
        0.99072617292404175
      ],
      "min": [
        -0.99916172027587891,
        -0.98923170566558838,
        -0.9928511381149292
      ],
      "type": "VEC3"
    },
    {
      "bufferView": 3,
      "byteOffset": 23904,
      "componentType": 5126,
      "count": 3620,
      "max": [
        0.9991413950920105,
        0.99385452270507812,
        0.95920461416244507,
        1
      ],
      "min": [
        -0.9991413950920105,
        -0.99385464191436768,
        -0.95920437574386597,
        -1
      ],
      "type": "VEC4"
    },
    {
      "bufferView": 1,
      "byteOffset": 11952,
      "componentType": 5126,
      "count": 3620,
      "max": [
        1,
        1
      ],
      "min": [
        0,
        0
      ],
      "type": "VEC2"
    },
    {
      "bufferView": 0,
      "byteOffset": 5976,
      "componentType": 5125,
      "count": 8400,
      "max": [
        3619
      ],
      "min": [
        0
      ],
      "type": "SCALAR"
    }
  ],
  "asset": {
    "extras": {
      "author": "lucasbaze (https://sketchfab.com/lucasbaze)",
      "license": "CC-BY-4.0 (http://creativecommons.org/licenses/by/4.0/)",
      "source": "https://sketchfab.com/3d-models/low-poly-tree-summer-832bf8ed1a3b4c60b005a69b84f78f55",
      "title": "Low Poly Tree - Summer"
    },
    "generator": "Sketchfab-6.91.0",
    "version": "2.0"
  },
  "bufferViews": [
    {
      "buffer": 0,
      "byteLength": 39576,
      "byteOffset": 0,
      "name": "floatBufferViews",
      "target": 34963
    },
    {
      "buffer": 0,
      "byteLength": 40912,
      "byteOffset": 39576,
      "byteStride": 8,
      "name": "floatBufferViews",
      "target": 34962
    },
    {
      "buffer": 0,
      "byteLength": 122736,
      "byteOffset": 80488,
      "byteStride": 12,
      "name": "floatBufferViews",
      "target": 34962
    },
    {
      "buffer": 0,
      "byteLength": 81824,
      "byteOffset": 203224,
      "byteStride": 16,
      "name": "floatBufferViews",
      "target": 34962
    }
  ],
  "buffers": [
    {
      "byteLength": 285048,
      "uri": "scene.bin"
    }
  ],
  "materials": [
    {
      "doubleSided": true,
      "emissiveFactor": [
        0,
        0,
        0
      ],
      "name": "Flat00BF00",
      "pbrMetallicRoughness": {
        "baseColorFactor": [
          0,
          0.74902000000000002,
          0,
          1
        ],
        "metallicFactor": 0,
        "roughnessFactor": 1
      }
    },
    {
      "doubleSided": true,
      "emissiveFactor": [
        0,
        0,
        0
      ],
      "name": "Standard713F25",
      "pbrMetallicRoughness": {
        "baseColorFactor": [
          0.443137,
          0.247059,
          0.145098,
          1
        ],
        "metallicFactor": 0,
        "roughnessFactor": 1
      }
    }
  ],
  "meshes": [
    {
      "primitives": [
        {
          "attributes": {
            "NORMAL": 1,
            "POSITION": 0,
            "TANGENT": 2,
            "TEXCOORD_0": 3
          },
          "indices": 4,
          "material": 0,
          "mode": 4
        }
      ]
    },
    {
      "primitives": [
        {
          "attributes": {
            "NORMAL": 6,
            "POSITION": 5,
            "TANGENT": 7,
            "TEXCOORD_0": 8
          },
          "indices": 9,
          "material": 1,
          "mode": 4
        }
      ]
    }
  ],
  "nodes": [
    {
      "children": [
        1
      ],
      "name": "RootNode (gltf orientation matrix)",
      "rotation": [
        -0.70710678118654746,
        -0,
        -0,
        0.70710678118654757
      ]
    },
    {
      "children": [
        2
      ],
      "name": "RootNode (model correction matrix)"
    },
    {
      "children": [
        3,
        4
      ],
      "name": "low_poly_tree_summer.obj.cleaner.materialmerger.gles"
    },
    {
      "mesh": 0,
      "name": ""
    },
    {
      "mesh": 1,
      "name": ""
    }
  ],
  "scene": 0,
  "scenes": [
    {
      "name": "OSG_Scene",
      "nodes": [
        0
      ]
    }
  ]
}

