{
  "accessors": [
    {
      "bufferView": 2,
      "componentType": 5126,
      "count": 5836,
      "max": [
        1.0685678720474243,
        0.65994912385940552,
        2.2297148704528809
      ],
      "min": [
        -0.47696951031684875,
        -0.85055357217788696,
        -0.022232621908187866
      ],
      "type": "VEC3"
    },
    {
      "bufferView": 2,
      "byteOffset": 70032,
      "componentType": 5126,
      "count": 5836,
      "max": [
        0.99995702505111694,
        0.99896609783172607,
        0.99901729822158813
      ],
      "min": [
        -0.99970334768295288,
        -0.99955606460571289,
        -0.99699974060058594
      ],
      "type": "VEC3"
    },
    {
      "bufferView": 3,
      "componentType": 5126,
      "count": 5836,
      "max": [
        0.99841952323913574,
        0.99789184331893921,
        0.99563735723495483,
        1
      ],
      "min": [
        -0.99930989742279053,
        -0.99789142608642578,
        -0.99707132577896118,
        -1
      ],
      "type": "VEC4"
    },
    {
      "bufferView": 1,
      "componentType": 5126,
      "count": 5836,
      "max": [
        1,
        1
      ],
      "min": [
        0,
        0
      ],
      "type": "VEC2"
    },
    {
      "bufferView": 0,
      "componentType": 5125,
      "count": 28590,
      "max": [
        5835
      ],
      "min": [
        0
      ],
      "type": "SCALAR"
    }
  ],
  "asset": {
    "extras": {
      "author": "lucasbaze (https://sketchfab.com/lucasbaze)",
      "license": "CC-BY-4.0 (http://creativecommons.org/licenses/by/4.0/)",
      "source": "https://sketchfab.com/3d-models/low-poly-outlined-dead-desert-tree-c48db762a9b344d486117bd714ec9752",
      "title": "Low Poly - Outlined Dead Desert Tree"
    },
    "generator": "Sketchfab-6.97.0",
    "version": "2.0"
  },
  "bufferViews": [
    {
      "buffer": 0,
      "byteLength": 114360,
      "byteOffset": 0,
      "name": "floatBufferViews",
      "target": 34963
    },
    {
      "buffer": 0,
      "byteLength": 46688,
      "byteOffset": 114360,
      "byteStride": 8,
      "name": "floatBufferViews",
      "target": 34962
    },
    {
      "buffer": 0,
      "byteLength": 140064,
      "byteOffset": 161048,
      "byteStride": 12,
      "name": "floatBufferViews",
      "target": 34962
    },
    {
      "buffer": 0,
      "byteLength": 93376,
      "byteOffset": 301112,
      "byteStride": 16,
      "name": "floatBufferViews",
      "target": 34962
    }
  ],
  "buffers": [
    {
      "byteLength": 394488,
      "uri": "scene.bin"
    }
  ],
  "materials": [
    {
      "doubleSided": true,
      "emissiveFactor": [
        0,
        0,
        0
      ],
      "name": "CartoonA8613A",
      "pbrMetallicRoughness": {
        "baseColorFactor": [
          0.41591835841330743,
          0.17010489886530047,
          0.063079649841017604,
          1
        ],
        "metallicFactor": 0,
        "roughnessFactor": 1
      }
    }
  ],
  "meshes": [
    {
      "primitives": [
        {
          "attributes": {
            "NORMAL": 1,
            "POSITION": 0,
            "TANGENT": 2,
            "TEXCOORD_0": 3
          },
          "indices": 4,
          "material": 0,
          "mode": 4
        }
      ]
    }
  ],
  "nodes": [
    {
      "children": [
        1
      ],
      "name": "RootNode (gltf orientation matrix)",
      "rotation": [
        -0.70710678118654746,
        -0,
        -0,
        0.70710678118654757
      ]
    },
    {
      "children": [
        2
      ],
      "name": "RootNode (model correction matrix)"
    },
    {
      "children": [
        3
      ],
      "name": "low_poly_toon_dead_tree.obj.cleaner.materialmerger.gles"
    },
    {
      "mesh": 0,
      "name": ""
    }
  ],
  "scene": 0,
  "scenes": [
    {
      "name": "OSG_Scene",
      "nodes": [
        0
      ]
    }
  ]
}

